<svg width="24" height="24" viewBox="0 0 24 24" fill="none" xmlns="http://www.w3.org/2000/svg">
<path fill-rule="evenodd" clip-rule="evenodd" d="M8.34146 2.00012C7.51304 2.00012 6.84146 2.67169 6.84146 3.50012C6.84146 4.32855 7.51304 5.00012 8.34146 5.00012H18.7578V14.4235C18.7578 15.2519 19.4294 15.9235 20.2578 15.9235C21.0863 15.9235 21.7578 15.2519 21.7578 14.4235V4.50012C21.7578 3.11941 20.6386 2.00012 19.2578 2.00012H8.34146ZM4 6.91476H15.122C16.2265 6.91476 17.122 7.81019 17.122 8.91476V20.0367C17.122 21.1413 16.2265 22.0367 15.122 22.0367H4C2.89543 22.0367 2 21.1413 2 20.0367V8.91476C2 7.81019 2.89543 6.91476 4 6.91476Z" fill="#6A6A6A"/>
</svg>
